<svg xmlns="http://www.w3.org/2000/svg" width="120" height="38" fill="none" viewBox="0 0 120 38"><path fill="#17191C" fill-rule="evenodd" d="M79.28 22.24c-.59.48-.98 1.14-1.65 2a102 102 0 0 0-4.44 6.15c-.76 1.13-1.46 2.11-2.08 3.29h8.37V37H66.56v-2.53c.59-.9 1.05-1.88 1.73-2.93.67-1.06 1.38-2.12 2.1-3.19a95.47 95.47 0 0 1 2.14-3.08c.7-.97 1.34-1.78 1.9-2.57h-7.48V19.4h12.33v2.85zM94.55 22.24a76.18 76.18 0 0 0-3.7 4.84c-.75 1.05-1.5 2.17-2.26 3.3-.77 1.14-1.45 2.12-2.06 3.3h8.22V37H82.02v-2.53c.6-.9 1.04-1.88 1.7-2.93a172.73 172.73 0 0 1 4.22-6.27c.7-.97 1.34-1.78 1.88-2.57h-7.4V19.4h12.13v2.85zM101.8 11.17h-.04c-.64 0-3.43.5-4.06 1.13l-.02.01v24.7h4.11V11.17zM115.92 26.43a5.2 5.2 0 0 0-.24-1.59c-.16-.5-.39-.93-.7-1.3a3.25 3.25 0 0 0-2.67-1.2 3.65 3.65 0 0 0-2.85 1.29c-.32.38-.58.8-.76 1.3-.18.5-.3.92-.37 1.5h7.59zm-11.83 1.85c0-1.55.23-2.91.69-4.08a8.56 8.56 0 0 1 1.83-2.92 7.6 7.6 0 0 1 2.63-1.75c1-.4 2-.59 3.04-.59 2.42 0 4.31.76 5.67 2.26 1.36 1.5 2.04 3.75 2.04 6.74a17.6 17.6 0 0 1-.08 1.43H108.3c.11 1.57.61 2.55 1.5 3.33.89.77 2.17 1.18 3.86 1.18a12.69 12.69 0 0 0 4.65-.82l.54 3.34a13.07 13.07 0 0 1-2.27.7 19.93 19.93 0 0 1-3.43.34c-1.55 0-2.9-.23-4.04-.69a7.52 7.52 0 0 1-4.48-4.82 11.82 11.82 0 0 1-.54-3.65zM30.54 19.39v9.22c0 1.9-.24 3.24-.79 4.05-.55.8-1.48 1.2-2.85 1.21-1.36 0-2.27-.4-2.82-1.21-.55-.81-.78-2.16-.78-4.05V19.4h-4.12v9.86c0 1.2.11 2.3.36 3.3a6.6 6.6 0 0 0 1.22 2.57 5.67 5.67 0 0 0 2.29 1.68c.95.4 2.46.6 3.87.6 1.42 0 2.93-.2 3.89-.6a5.7 5.7 0 0 0 3.5-4.26c.24-1 .34-2.1.34-3.29V19.4h-4.11zM4.18 28.14c0-1.73.34-3.1 1.03-4.1.68-1.02 1.77-1.53 3.25-1.53a6.3 6.3 0 0 1 3.29.98v10.16a13.83 13.83 0 0 1-2.76.27c-1.5 0-2.68-.52-3.54-1.54-.85-1.02-1.27-2.43-1.27-4.23zm-3.56 3.9a7.69 7.69 0 0 0 4.6 4.77c1.1.42 2.35.63 3.74.63 1.35 0 2.63-.1 3.85-.3 1.23-.2 2.26-.43 3.05-.67v-25.3c-.67 0-3.46.5-4.1 1.13L11.76 20a7.5 7.5 0 0 0-1.72-.69c-.68-.2-1.43-.3-2.26-.3a8 8 0 0 0-3.31.67 6.5 6.5 0 0 0-2.44 1.87 8.63 8.63 0 0 0-1.5 2.91A12.76 12.76 0 0 0 0 28.21c0 1.42.2 2.7.62 3.82zM48.4 32.37a4.36 4.36 0 0 1-3.55 1.54 13.75 13.75 0 0 1-2.76-.27V23.49a6.38 6.38 0 0 1 3.3-.99c1.5 0 2.57.5 3.26 1.52a7.23 7.23 0 0 1 1.02 4.11c0 1.8-.43 3.2-1.28 4.23zm4.93-7.92a8.63 8.63 0 0 0-1.5-2.91 6.5 6.5 0 0 0-2.45-1.87 8.03 8.03 0 0 0-3.31-.66c-.84 0-1.58.1-2.27.3a7.6 7.6 0 0 0-1.71.67v-8.81h-.06c-.63 0-3.4.5-4.04 1.13l-.01.01v24.16c.78.24 1.82.47 3.05.67 1.22.2 2.5.3 3.86.3 1.39 0 2.64-.21 3.74-.64a7.69 7.69 0 0 0 4.6-4.77c.41-1.13.62-2.4.62-3.82 0-1.37-.17-2.62-.52-3.76zM59.94 19.39s-1.9-.02-2.45.34c-.64.41-1.03.98-1.03 1.72 0 .7.22 6.25.31 6.8.1.54.65.18.9 1.56.24 1.39.81 7.3.96 7.44.2.21 1.13.38 1.34.38.21 0 1.14-.17 1.35-.38.14-.14.72-6.05.96-7.44.24-1.38.8-1.02.9-1.56.08-.55.3-6.1.3-6.8 0-.74-.4-1.3-1.05-1.72-.5-.33-2.2-.34-2.43-.34h-.1M62.37 16.26a2.35 2.35 0 1 1-4.7 0 2.35 2.35 0 0 1 4.7 0z" clip-rule="evenodd"/><path fill="#E00000" fill-rule="evenodd" d="M58.7 7.57c1.24-1.02 3.14-2.92 3.14-4.36 0-2.2-1.18-3.2-1.18-3.2s.52 1.74-3.5 5.43c-3.45 3.18-2.96 6.07-2.95 6.26.12 1.78.86 3.84 2.15 4.7a5.2 5.2 0 0 1-.84-2.7c0-.3-.26-3.24 3.2-6.13z" clip-rule="evenodd"/><path fill="#E00000" fill-rule="evenodd" d="M65.25 13.96c-.07-1.76-.63-1.9-1.28-3.46-.92-2.5.65-4.64-1.1-7.3-.53 3.4-3.06 4.37-4.9 6.55-1.43 1.7-1.82 3.88-1.12 5.42a3.36 3.36 0 1 1 5.98 2.94c1.6-.58 2.49-2.47 2.42-4.15z" clip-rule="evenodd"/></svg>